<svg id="Capa_1" data-name="Capa 1" xmlns="http://www.w3.org/2000/svg" viewBox="0 0 200.38 121.55"><defs><style>.cls-1{fill:#f19189;}.cls-2{fill:#176682;}.cls-3{fill:#f09189;}.cls-4{fill:#6e7582;}.cls-5{fill:#ba8082;}.cls-6,.cls-7{font-size:12px;font-family:BrushScriptMT, Brush Script MT;}.cls-6{fill:#fff;}</style></defs><title>LogoUno</title><rect x="100.38" y="21.55" width="100" height="100"/><path class="cls-1" d="M147.5,39.5a20.5,20.5,0,0,1,41,0" transform="translate(-17.62 21.55)"/><path class="cls-2" d="M176.79,58c.63-.3,1.25-.64,1.85-1H157.36c.6.36,1.22.7,1.85,1Z" transform="translate(-17.62 21.55)"/><path class="cls-3" d="M188.47,40c0-.17,0-.33,0-.5h-41c0,.17,0,.33,0,.5Z" transform="translate(-17.62 21.55)"/><path class="cls-4" d="M151,51c.23.34.49.67.75,1h32.44c.26-.33.52-.66.75-1Z" transform="translate(-17.62 21.55)"/><path class="cls-4" d="M152.6,53c.3.34.59.68.91,1h29c.32-.32.61-.66.91-1Z" transform="translate(-17.62 21.55)"/><path class="cls-2" d="M154.61,55c.41.35.83.68,1.26,1h24.26c.43-.32.85-.65,1.26-1Z" transform="translate(-17.62 21.55)"/><path class="cls-4" d="M186.16,49H149.84c.21.39.43.76.66,1.14V50h35v.14C185.73,49.76,186,49.39,186.16,49Z" transform="translate(-17.62 21.55)"/><path class="cls-4" d="M148.94,47c.13.34.27.67.42,1h37.28c.15-.33.29-.66.42-1Z" transform="translate(-17.62 21.55)"/><path class="cls-2" d="M161.69,59a20.41,20.41,0,0,0,12.62,0Z" transform="translate(-17.62 21.55)"/><path class="cls-5" d="M147.58,41c0,.34,0,.67.09,1h40.66c0-.33.07-.66.09-1Z" transform="translate(-17.62 21.55)"/><path class="cls-5" d="M147.82,43c.06.34.12.67.19,1h40c.07-.33.13-.66.19-1Z" transform="translate(-17.62 21.55)"/><path class="cls-5" d="M148.27,45c.09.34.19.67.3,1h38.86c.11-.33.21-.66.3-1Z" transform="translate(-17.62 21.55)"/><text class="cls-6" transform="translate(122 90.79)">Sunset Lights</text><path class="cls-1" d="M29.5,47.5a20.5,20.5,0,0,1,41,0" transform="translate(-17.62 21.55)"/><path class="cls-2" d="M58.79,66c.63-.3,1.25-.64,1.85-1H39.36c.6.36,1.22.7,1.85,1Z" transform="translate(-17.62 21.55)"/><path class="cls-3" d="M70.47,48c0-.17,0-.33,0-.5h-41c0,.17,0,.33,0,.5Z" transform="translate(-17.62 21.55)"/><path class="cls-4" d="M33,59c.23.34.49.67.75,1H66.22c.26-.33.52-.66.75-1Z" transform="translate(-17.62 21.55)"/><path class="cls-4" d="M34.6,61c.3.34.59.68.91,1h29c.32-.32.61-.66.91-1Z" transform="translate(-17.62 21.55)"/><path class="cls-2" d="M36.61,63c.41.35.83.68,1.26,1H62.13c.43-.32.85-.65,1.26-1Z" transform="translate(-17.62 21.55)"/><path class="cls-4" d="M68.16,57H31.84c.21.39.43.76.66,1.14V58h35v.14C67.73,57.76,68,57.39,68.16,57Z" transform="translate(-17.62 21.55)"/><path class="cls-4" d="M30.94,55c.13.34.27.67.42,1H68.64c.15-.33.29-.66.42-1Z" transform="translate(-17.62 21.55)"/><path class="cls-2" d="M43.69,67a20.41,20.41,0,0,0,12.62,0Z" transform="translate(-17.62 21.55)"/><path class="cls-5" d="M29.58,49c0,.34.05.67.09,1H70.33c0-.33.07-.66.09-1Z" transform="translate(-17.62 21.55)"/><path class="cls-5" d="M29.82,51c.06.34.12.67.19,1H70c.07-.33.13-.66.19-1Z" transform="translate(-17.62 21.55)"/><path class="cls-5" d="M30.27,53c.09.34.19.67.3,1H69.43c.11-.33.21-.66.3-1Z" transform="translate(-17.62 21.55)"/><text class="cls-7" transform="translate(0 10.79)">Sunset Lights</text><text class="cls-7" transform="translate(120.62 9.79)">Sunset Lights</text></svg>